<svg xmlns="http://www.w3.org/2000/svg" viewBox="0 0 32 32">
  <defs>
    <linearGradient id="background-fill" x1="6" y1="3" x2="27" y2="29" gradientUnits="userSpaceOnUse">
      <stop offset="0" stop-color="#213f82" />
      <stop offset="1" stop-color="#0f2450" />
    </linearGradient>
  </defs>

  <rect x="1" y="1" width="30" height="30" rx="7" fill="url(#background-fill)" />
  <rect x="2" y="2" width="28" height="28" rx="6" fill="none" stroke="#c89730" stroke-opacity="0.45" />

  <g transform="translate(16 16.7) scale(1.17) translate(-16 -16)">
    <rect
      x="10.4"
      y="7.2"
      width="13.2"
      height="17.2"
      rx="2.1"
      fill="#fdfcf7"
      stroke="#c89730"
      stroke-opacity="0.55"
      stroke-width="1.1"
      transform="rotate(8 17 15.8)"
    />

    <rect
      x="7.3"
      y="6"
      width="14.8"
      height="19.6"
      rx="2.3"
      fill="#fdfcf7"
      stroke="#c89730"
      stroke-width="1.2"
    />

    <rect
      x="8.5"
      y="7.2"
      width="12.4"
      height="17.2"
      rx="1.6"
      fill="none"
      stroke="#c89730"
      stroke-opacity="0.24"
    />

    <path
      d="M616 378H407L406 442Q406 571 440 651Q474 731 572 827Q681 935 703 975Q725 1015 725 1068Q725 1155 668.5 1211Q612 1267 526 1267Q341 1267 298 1020L87 1052Q96 1240 216.5 1360.5Q337 1481 519 1481Q704 1481 827 1360Q950 1239 950 1058Q950 966 907 883.5Q864 801 722 658Q649 584 631.5 539Q614 494 616 378ZM407 0V281H638V0Z"
      transform="translate(9.534 20.75) scale(0.0102539 -0.0102539)"
      fill="#0f2450"
      stroke="#c89730"
      stroke-width="56"
      stroke-linejoin="round"
      paint-order="stroke fill"
    />
  </g>
</svg>
